<svg xmlns="http://www.w3.org/2000/svg" viewBox="0 0 760 260" font-family="sans-serif" font-size="11"><rect width="760" height="260" fill="#fff"/><text x="56" y="15" font-size="13" font-weight="bold">mutig: Level (grün), Kapitel (orange), Sorten (grau)</text><line x1="56" y1="24" x2="56" y2="226" stroke="#eee"/><text x="56" y="240" text-anchor="middle" fill="#555">0 h</text><line x1="102.62260032809752" y1="24" x2="102.62260032809752" y2="226" stroke="#eee"/><text x="102.62260032809752" y="240" text-anchor="middle" fill="#555">1 h</text><line x1="149.24520065619504" y1="24" x2="149.24520065619504" y2="226" stroke="#eee"/><text x="149.24520065619504" y="240" text-anchor="middle" fill="#555">2 h</text><line x1="195.86780098429256" y1="24" x2="195.86780098429256" y2="226" stroke="#eee"/><text x="195.86780098429256" y="240" text-anchor="middle" fill="#555">3 h</text><line x1="242.49040131239005" y1="24" x2="242.49040131239005" y2="226" stroke="#eee"/><text x="242.49040131239005" y="240" text-anchor="middle" fill="#555">4 h</text><line x1="289.1130016404876" y1="24" x2="289.1130016404876" y2="226" stroke="#eee"/><text x="289.1130016404876" y="240" text-anchor="middle" fill="#555">5 h</text><line x1="335.7356019685851" y1="24" x2="335.7356019685851" y2="226" stroke="#eee"/><text x="335.7356019685851" y="240" text-anchor="middle" fill="#555">6 h</text><line x1="382.3582022966826" y1="24" x2="382.3582022966826" y2="226" stroke="#eee"/><text x="382.3582022966826" y="240" text-anchor="middle" fill="#555">7 h</text><line x1="428.9808026247801" y1="24" x2="428.9808026247801" y2="226" stroke="#eee"/><text x="428.9808026247801" y="240" text-anchor="middle" fill="#555">8 h</text><line x1="475.6034029528776" y1="24" x2="475.6034029528776" y2="226" stroke="#eee"/><text x="475.6034029528776" y="240" text-anchor="middle" fill="#555">9 h</text><line x1="522.2260032809752" y1="24" x2="522.2260032809752" y2="226" stroke="#eee"/><text x="522.2260032809752" y="240" text-anchor="middle" fill="#555">10 h</text><line x1="568.8486036090727" y1="24" x2="568.8486036090727" y2="226" stroke="#eee"/><text x="568.8486036090727" y="240" text-anchor="middle" fill="#555">11 h</text><line x1="615.4712039371702" y1="24" x2="615.4712039371702" y2="226" stroke="#eee"/><text x="615.4712039371702" y="240" text-anchor="middle" fill="#555">12 h</text><line x1="662.0938042652677" y1="24" x2="662.0938042652677" y2="226" stroke="#eee"/><text x="662.0938042652677" y="240" text-anchor="middle" fill="#555">13 h</text><line x1="708.7164045933652" y1="24" x2="708.7164045933652" y2="226" stroke="#eee"/><text x="708.7164045933652" y="240" text-anchor="middle" fill="#555">14 h</text><line x1="56" y1="226" x2="744" y2="226" stroke="#999" stroke-dasharray="3,3"/><text x="52" y="230" text-anchor="end" fill="#2e8b57">0</text><text x="52" y="129" text-anchor="end" fill="#2e8b57">49</text><text x="52" y="28" text-anchor="end" fill="#2e8b57">97</text><polyline fill="none" stroke="#2e8b57" stroke-width="1.6" points="62.8,217.7 69.6,215.6 70.2,215.6 77.0,213.5 83.6,211.4 90.5,211.4 96.4,211.4 103.4,209.3 110.2,209.3 110.8,209.3 117.6,209.3 124.9,207.3 131.7,207.3 138.4,207.3 145.5,205.2 153.1,205.2 153.7,205.2 161.0,203.1 168.2,203.1 175.7,203.1 182.6,201.0 189.9,201.0 197.3,201.0 197.9,201.0 204.9,198.9 211.8,198.9 218.6,198.9 226.0,196.8 233.1,196.8 240.5,196.8 241.1,194.8 248.2,194.8 255.1,194.8 262.1,194.8 269.7,192.7 276.9,192.7 283.9,192.7 291.2,192.7 298.1,192.7 305.1,190.6 312.6,190.6 319.7,190.6 326.8,188.5 334.1,188.5 341.1,188.5 348.0,188.5 355.0,186.4 361.9,186.4 369.4,186.4 376.4,186.4 384.1,184.4 391.5,184.4 398.6,184.4 405.8,184.4 412.8,182.3 420.1,182.3 427.6,182.3 434.9,180.2 442.0,180.2 449.0,180.2 456.4,180.2 463.6,180.2 470.6,178.1 477.5,178.1 484.7,178.1 491.7,178.1 498.9,176.0 506.2,176.0 513.3,176.0 520.5,176.0 527.8,176.0 534.9,173.9 541.8,173.9 548.7,173.9 555.9,173.9 563.1,173.9 570.1,171.9 577.3,171.9 585.0,171.9 592.1,171.9 599.0,171.9 606.0,169.8 613.4,169.8 620.4,169.8 627.7,169.8 634.9,167.7 641.9,167.7 649.1,167.7 656.4,167.7 663.7,165.6 670.1,165.6 677.5,165.6 685.1,163.5 692.3,163.5 700.1,163.5 707.5,163.5 714.8,161.4 722.3,161.4 729.4,161.4 737.0,161.4 744.0,161.4"/><text x="744" y="36" text-anchor="end" fill="#e67e22">Kapitel (max 4)</text><polyline fill="none" stroke="#e67e22" stroke-width="1.6" points="62.8,223.9 69.6,223.9 70.2,223.9 77.0,223.9 83.6,223.9 90.5,223.9 96.4,223.9 103.4,223.9 110.2,223.9 110.8,223.9 117.6,223.9 124.9,223.9 131.7,223.9 138.4,223.9 145.5,223.9 153.1,223.9 153.7,223.9 161.0,223.9 168.2,223.9 175.7,223.9 182.6,223.9 189.9,223.9 197.3,223.9 197.9,223.9 204.9,223.9 211.8,223.9 218.6,223.9 226.0,223.9 233.1,221.8 240.5,221.8 241.1,221.8 248.2,221.8 255.1,221.8 262.1,221.8 269.7,221.8 276.9,221.8 283.9,221.8 291.2,221.8 298.1,221.8 305.1,221.8 312.6,221.8 319.7,221.8 326.8,221.8 334.1,221.8 341.1,221.8 348.0,221.8 355.0,221.8 361.9,221.8 369.4,221.8 376.4,221.8 384.1,221.8 391.5,221.8 398.6,221.8 405.8,221.8 412.8,221.8 420.1,221.8 427.6,221.8 434.9,221.8 442.0,221.8 449.0,221.8 456.4,221.8 463.6,221.8 470.6,221.8 477.5,221.8 484.7,221.8 491.7,221.8 498.9,221.8 506.2,221.8 513.3,221.8 520.5,221.8 527.8,221.8 534.9,221.8 541.8,221.8 548.7,221.8 555.9,221.8 563.1,221.8 570.1,221.8 577.3,221.8 585.0,217.7 592.1,217.7 599.0,217.7 606.0,217.7 613.4,217.7 620.4,217.7 627.7,217.7 634.9,217.7 641.9,217.7 649.1,217.7 656.4,217.7 663.7,217.7 670.1,217.7 677.5,217.7 685.1,217.7 692.3,217.7 700.1,217.7 707.5,217.7 714.8,217.7 722.3,217.7 729.4,217.7 737.0,217.7 744.0,217.7"/><text x="744" y="48" text-anchor="end" fill="#888">Sorten (max 97)</text><polyline fill="none" stroke="#888" stroke-width="1.6" points="62.8,215.6 69.6,215.6 70.2,215.6 77.0,215.6 83.6,215.6 90.5,203.1 96.4,203.1 103.4,203.1 110.2,203.1 110.8,203.1 117.6,203.1 124.9,203.1 131.7,203.1 138.4,203.1 145.5,180.2 153.1,180.2 153.7,180.2 161.0,180.2 168.2,180.2 175.7,180.2 182.6,180.2 189.9,180.2 197.3,180.2 197.9,180.2 204.9,180.2 211.8,180.2 218.6,180.2 226.0,180.2 233.1,180.2 240.5,180.2 241.1,180.2 248.2,180.2 255.1,180.2 262.1,180.2 269.7,180.2 276.9,180.2 283.9,180.2 291.2,180.2 298.1,180.2 305.1,180.2 312.6,155.2 319.7,155.2 326.8,155.2 334.1,155.2 341.1,155.2 348.0,155.2 355.0,155.2 361.9,155.2 369.4,155.2 376.4,155.2 384.1,155.2 391.5,155.2 398.6,155.2 405.8,155.2 412.8,155.2 420.1,155.2 427.6,155.2 434.9,155.2 442.0,155.2 449.0,155.2 456.4,155.2 463.6,155.2 470.6,155.2 477.5,155.2 484.7,155.2 491.7,155.2 498.9,155.2 506.2,155.2 513.3,155.2 520.5,155.2 527.8,155.2 534.9,155.2 541.8,155.2 548.7,155.2 555.9,155.2 563.1,155.2 570.1,155.2 577.3,155.2 585.0,155.2 592.1,155.2 599.0,155.2 606.0,155.2 613.4,155.2 620.4,155.2 627.7,90.6 634.9,63.6 641.9,63.6 649.1,55.2 656.4,55.2 663.7,28.2 670.1,28.2 677.5,28.2 685.1,28.2 692.3,28.2 700.1,28.2 707.5,28.2 714.8,24.0 722.3,24.0 729.4,24.0 737.0,24.0 744.0,24.0"/><text x="60" y="36" fill="#2e8b57">Level</text></svg>